<svg width="143" height="48" viewBox="0 0 143 48" fill="none" xmlns="http://www.w3.org/2000/svg">
<g clip-path="url(#clip0_11397_3624)">
<g clip-path="url(#clip1_11397_3624)">
<path fill-rule="evenodd" clip-rule="evenodd" d="M29.5134 0.0547065L18.6365 10.9316C18.5181 11.0499 18.6001 11.2593 18.773 11.2593H23.861V29.4542C23.861 29.5588 23.9475 29.6453 24.0522 29.6453H29.6499C29.7546 29.6453 29.841 29.5588 29.841 29.4542V11.2593H34.838C34.9427 11.2593 35.0292 11.1728 35.0292 11.0681V6.21221C35.0292 6.10754 34.9427 6.02107 34.838 6.02107H29.841V0.191237C29.841 0.0228495 29.6362 -0.0636195 29.5134 0.0547065ZM68.8931 6.21224V8.47864V8.48319C70.2448 6.67644 72.0788 5.99379 74.0039 5.99379C74.7366 5.99379 75.6059 6.08481 76.2885 6.25775C76.3704 6.2805 76.4296 6.35787 76.4296 6.44434V11.637C76.4296 11.7599 76.3113 11.8555 76.1884 11.8191C75.6832 11.6734 75.0916 11.5824 74.5045 11.5824C71.4554 11.5824 68.9842 13.6804 68.9842 18.2815V29.4588C68.9842 29.5634 68.8977 29.6499 68.793 29.6499H63.3045C63.1998 29.6499 63.1134 29.5634 63.1134 29.4588V6.21224C63.1134 6.10757 63.1998 6.0211 63.3045 6.0211H68.702C68.8067 6.0211 68.8931 6.10757 68.8931 6.21224ZM117.188 6.01653H107.75C107.645 6.01653 107.554 6.103 107.558 6.21222C107.663 11.4868 111.918 15.742 117.188 15.8421C117.293 15.8421 117.384 15.7557 117.384 15.651V6.20767C117.384 6.103 117.298 6.01653 117.193 6.01653H117.188ZM142.542 6.01653H136.198C136.125 6.01653 136.061 6.05749 136.03 6.1212L130.455 17.1028L124.916 6.19402C124.843 6.05294 124.648 6.05294 124.575 6.19402L115.696 23.679C115.668 23.7336 115.668 23.7927 115.696 23.8474L118.759 29.8774C118.831 30.0185 119.027 30.0185 119.1 29.8774L124.748 18.7502L130.395 29.8865C130.464 30.0231 130.659 30.0231 130.728 29.8865L142.71 6.28504C142.774 6.16216 142.683 6.01653 142.547 6.01653H142.542ZM77.7676 6.29864L87.1745 24.6028L81.5495 35.4933C81.4858 35.6207 81.5768 35.7709 81.7179 35.7709H88.2213C88.2941 35.7709 88.3578 35.73 88.3897 35.6662L94.1194 24.5345C94.1467 24.4799 94.1467 24.4162 94.1194 24.3616L84.7398 6.12571C84.7079 6.06199 84.6396 6.02103 84.5714 6.02103H77.9406C77.7995 6.02103 77.7039 6.17122 77.7722 6.29864H77.7676ZM92.0487 15.6464V6.20764L92.0532 6.20309C92.0532 6.09842 92.1397 6.01195 92.2444 6.01195H101.683C101.788 6.01195 101.874 6.10297 101.874 6.20764C101.774 11.4823 97.519 15.7329 92.2444 15.8376C92.1351 15.8421 92.0487 15.7511 92.0487 15.6464ZM10.4923 15.0637L10.7086 15.1368C14.1219 16.2882 18.6092 17.9857 18.6092 22.8143C18.2769 32.1848 4.79232 31.8162 0.0410792 25.9681C-0.0226348 25.8953 -0.0135328 25.7815 0.0547322 25.7133L3.63637 22.1316C3.70919 22.0588 3.82751 22.0588 3.90488 22.1316C5.23832 23.4287 7.67311 24.7121 9.58908 24.8258C11.1137 24.9169 12.529 24.2069 12.5563 22.7779C12.388 21.2109 10.4403 20.5367 8.1779 19.7536C4.93418 18.6308 1.0437 17.2841 0.823851 12.7611C0.600852 8.17373 4.82873 5.34755 9.29782 5.34755C13.2162 5.3521 16.0333 7.04052 17.5579 8.7517C17.6261 8.82452 17.6216 8.93829 17.5488 9.01111L13.999 12.5609C13.9262 12.6383 13.7988 12.6337 13.7259 12.5563C12.7793 11.5688 11.4641 10.8816 10.0305 10.695C8.50594 10.4993 6.86758 11.2183 6.87213 12.661C6.92926 13.8607 8.48424 14.3857 10.4923 15.0637ZM47.9632 5.40211C41.1367 5.40211 35.6026 10.9361 35.6026 17.7626C35.6026 24.5891 41.1367 30.1231 47.9632 30.1231C54.7896 30.1231 60.3237 24.5891 60.3237 17.7626C60.3237 10.9361 54.7896 5.40211 47.9632 5.40211ZM47.9632 24.1204C44.4498 24.1204 41.6054 21.2715 41.6054 17.7626C41.6054 14.2538 44.4543 11.4049 47.9632 11.4049C51.472 11.4049 54.3209 14.2538 54.3209 17.7626C54.3209 21.2715 51.472 24.1204 47.9632 24.1204ZM107.326 27.1559C107.326 25.3446 105.952 24.1704 104.241 24.1704C102.561 24.1704 101.087 25.2763 101.087 27.1559C101.087 29.0354 102.53 30.2096 104.241 30.2096C105.952 30.2096 107.326 28.9672 107.326 27.1559Z" fill="#FF5624"/>
<path fill-rule="evenodd" clip-rule="evenodd" d="M75.4559 44.6854C75.9338 45.1906 76.6437 45.4636 77.4493 45.4636V45.4591C79.4836 45.4591 80.8625 43.8344 80.8625 41.9093C80.8625 39.9842 79.4836 38.3595 77.4493 38.3595C76.6437 38.3595 75.9338 38.6326 75.4559 39.1241V35.6289H73.9541V45.3271H75.4559V44.6854ZM79.3197 41.9138C79.3197 43.1153 78.4869 44.0983 77.2854 44.0983C76.398 44.0983 75.8109 43.6887 75.4559 43.1426V40.6714C75.8109 40.1389 76.398 39.7294 77.2854 39.7294C78.4869 39.7294 79.3197 40.7124 79.3197 41.9138ZM80.6805 38.5006L83.6842 43.9345L81.5133 47.8438H83.2336L88.3945 38.5006H86.6878L84.5443 42.5419L82.4008 38.5006H80.6805ZM91.0977 38.5006H92.7634L94.338 42.2688L96.2221 38.364L98.1199 42.2688L99.69 38.5006H101.356L98.2974 45.4636L96.2221 41.3677L94.1423 45.4636L91.0977 38.5006ZM107.905 42.2688C107.973 39.7703 106.608 38.364 104.682 38.364C102.73 38.364 101.283 39.6884 101.283 41.9138C101.283 44.2894 102.948 45.4636 104.955 45.4636C105.925 45.4636 106.621 45.3134 107.304 44.9857V43.5249C106.58 43.9481 105.925 44.1119 105.119 44.1119C104.013 44.1119 102.921 43.6477 102.853 42.2688H107.905ZM106.321 41.1902H102.88C103.058 40.057 103.891 39.5928 104.669 39.5928C105.556 39.5928 106.198 40.1526 106.321 41.1902ZM110.508 35.6335H109.006V45.3317H110.508V35.6335ZM111.891 44.9857C112.492 45.3134 113.366 45.4636 114.24 45.4636C115.96 45.4636 116.943 44.6854 116.943 43.3474C116.943 42.1869 116.287 41.5452 114.854 41.2312L114.171 41.0537C113.502 40.8762 113.229 40.6714 113.243 40.2891C113.243 39.8112 113.748 39.6338 114.485 39.6338C115.141 39.6338 115.919 39.8522 116.369 40.1389V38.7327C115.892 38.5142 115.209 38.364 114.444 38.364C112.861 38.364 111.782 39.1013 111.782 40.3301C111.782 41.4496 112.451 42.1186 113.721 42.4053L114.417 42.5692C115.154 42.7603 115.455 43.006 115.455 43.4156C115.455 43.8935 114.977 44.1666 114.171 44.1666C113.311 44.1666 112.465 43.8798 111.891 43.5112V44.9857ZM118.7 39.8386H117.143V38.5006H118.7V36.8759L120.201 36.0021V38.5006H122.29V39.8386H120.201V45.3271H118.7V39.8386ZM122.522 41.9138C122.522 43.8935 124.079 45.4636 126.099 45.4636C128.12 45.4636 129.677 43.8935 129.677 41.9138C129.677 39.9341 128.12 38.364 126.099 38.364C124.079 38.364 122.522 39.9341 122.522 41.9138ZM128.147 41.9138C128.147 43.1289 127.301 44.071 126.099 44.071C124.884 44.071 124.038 43.1289 124.038 41.9138C124.038 40.6987 124.898 39.7566 126.099 39.7566C127.301 39.7566 128.147 40.6987 128.147 41.9138ZM130.814 38.5006H132.316V39.4017C132.576 38.8692 133.272 38.4323 134.173 38.4323H134.705V39.9069H134.064C133.149 39.9069 132.617 40.2345 132.316 40.9445V45.3271H130.814V38.5006ZM135.01 38.5006L138.014 43.9345L135.843 47.8438H137.563L142.729 38.5006H141.018L138.874 42.5419L136.731 38.5006H135.01Z" fill="#9E9D9B"/>
</g>
</g>
<defs>
<clipPath id="clip0_11397_3624">
<rect width="142.728" height="48" fill="white"/>
</clipPath>
<clipPath id="clip1_11397_3624">
<rect width="142.728" height="47.8447" fill="white"/>
</clipPath>
</defs>
</svg>
